<svg xmlns="http://www.w3.org/2000/svg" viewBox="0 0 864 120" role="img" aria-labelledby="title">
  <title id="title">Noise Lab — Signal Cut</title>
  <!-- Approved Signal Cut silhouette, rebuilt as clean geometric outlines. -->
  <g fill="#f2f1e9" fill-rule="evenodd">
    <path d="M0 3H41L83 59V3H123V117H82L40 61V117H0Z"/>
    <path d="M230.619 20.271A59 59 0 0 1 147.271 103.619Z M226.729 16.381A59 59 0 0 0 143.381 99.729Z"/>
    <path d="M250 3H288V117H250Z"/>
    <path d="M393 36H355C354 29 349 26 341 26C333 26 328 29 328 34C328 40 335 42 351 46C379 52 394 60 394 83C394 108 374 120 346 120C316 120 294 108 292 83H331C332 91 337 95 346 95C356 95 361 91 361 86C361 80 354 78 338 74C309 68 294 59 294 37C294 13 314 0 343 0C372 0 391 13 393 36Z"/>
    <path d="M398 3H490V32H439V45H478V74H439V88H490V117H398Z"/>
    <path d="M518 3H560V88H615V117H518Z"/>
    <path d="M613 117L655 3H705L750 117H707L700 99H662L656 117ZM667 73H688L677 43Z"/>
    <path d="M750 3H817C847 3 864 13 864 34C864 46 858 55 846 60C859 64 864 74 864 88C864 108 849 117 822 117H750ZM788 29V46H803C812 46 817 43 817 37C817 32 812 29 803 29ZM788 72V91H807C817 91 822 88 822 81C822 75 817 72 807 72Z"/>
  </g>
</svg>
